<svg xmlns="http://www.w3.org/2000/svg" width="133.66" height="83.96" viewBox="0 0 133.66 83.96"><defs><style>.cls-1{fill:#095280;}.cls-2{fill:none;stroke:#095280;stroke-linecap:round;stroke-linejoin:round;stroke-width:0.92px;}</style></defs><title>Asset 4</title><g id="Layer_2" data-name="Layer 2"><g id="Layer_1-2" data-name="Layer 1"><path class="cls-1" d="M1.33,83.61a1,1,0,0,1-1-1v-.12h133v.12a1,1,0,0,1-1,1Z"/><path class="cls-1" d="M132.93,82.85a.64.64,0,0,1-.6.42H1.33a.64.64,0,0,1-.6-.42h132.2m.73-.69H0v.46A1.33,1.33,0,0,0,1.33,84h131a1.33,1.33,0,0,0,1.33-1.33v-.46Z"/><path class="cls-2" d="M13,.46H120.67a7.16,7.16,0,0,1,7.16,7.16V82.9a0,0,0,0,1,0,0H5.83a0,0,0,0,1,0,0V7.62A7.16,7.16,0,0,1,13,.46Z"/></g></g></svg>