<svg xmlns="http://www.w3.org/2000/svg" width="133.66" height="98.5" viewBox="0 0 133.66 98.5"><defs><style>.cls-1{fill:#095280;}.cls-2{fill:none;stroke:#095280;stroke-linecap:round;stroke-linejoin:round;stroke-width:1px;}</style></defs><title>Asset 6</title><g id="Layer_2" data-name="Layer 2"><g id="Layer_1-2" data-name="Layer 1"><path class="cls-1" d="M1.44,98.12A1.07,1.07,0,0,1,.37,97.06v-.29H133.29v.29a1.07,1.07,0,0,1-1.07,1.07Z"/><path class="cls-1" d="M132.91,97.14a.7.7,0,0,1-.69.61H1.44a.7.7,0,0,1-.69-.61H132.91m.75-.75H0v.67A1.44,1.44,0,0,0,1.44,98.5H132.22a1.44,1.44,0,0,0,1.44-1.44v-.67Z"/><path class="cls-2" d="M13.59.5H120.07a7.76,7.76,0,0,1,7.76,7.76v89a0,0,0,0,1,0,0H5.83a0,0,0,0,1,0,0v-89A7.76,7.76,0,0,1,13.59.5Z"/></g></g></svg>