<svg xmlns="http://www.w3.org/2000/svg" width="151" height="151" viewBox="0 0 151 151"><defs><style>.cls-1{fill:#095280;}</style></defs><title>Asset 1</title><g id="Layer_2" data-name="Layer 2"><g id="Layer_1-2" data-name="Layer 1"><path class="cls-1" d="M75.5,3A72.5,72.5,0,1,1,3,75.5,72.58,72.58,0,0,1,75.5,3m0-3A75.5,75.5,0,1,0,151,75.5,75.5,75.5,0,0,0,75.5,0Z"/><path class="cls-1" d="M103.51,98.54q0,15.94-11,25t-30.25,9q-15.94,0-26.41-5.69v-17a53.79,53.79,0,0,0,26.57,7.36q10.4,0,16.4-4.44a14.48,14.48,0,0,0,6-12.33,14.88,14.88,0,0,0-3.11-9.3q-3.11-4.06-13.06-10.36A59.26,59.26,0,0,1,56.9,71.52a30.55,30.55,0,0,1-5.81-9.15,29,29,0,0,1-2-11,32,32,0,0,1,4.67-17.23A30.82,30.82,0,0,1,67,22.56a43.91,43.91,0,0,1,19.24-4.1,61.5,61.5,0,0,1,28.92,7l-6.53,14.5Q96.37,34,86.2,34q-8.27,0-13.28,4.44a14.74,14.74,0,0,0-5,11.58A16,16,0,0,0,69,56.3a15.24,15.24,0,0,0,3.53,5Q75,63.62,82.79,68.55,94.55,75.92,99,82.79A28.2,28.2,0,0,1,103.51,98.54Z"/></g></g></svg>