<svg xmlns="http://www.w3.org/2000/svg" width="204.18" height="159.09" viewBox="0 0 204.18 159.09"><defs><style>.cls-1,.cls-5{fill:none;}.cls-1,.cls-4{stroke:#fff;}.cls-1,.cls-2,.cls-4,.cls-5{stroke-linecap:round;stroke-linejoin:round;}.cls-1{stroke-width:3.29px;}.cls-2,.cls-3,.cls-4{fill:#095280;}.cls-2,.cls-5{stroke:#095280;}.cls-2{stroke-width:3.18px;}.cls-4{stroke-width:2.9px;}.cls-5{stroke-width:5px;}</style></defs><title>Asset 1</title><g id="Layer_2" data-name="Layer 2"><g id="Layer_1-2" data-name="Layer 1"><rect class="cls-1" x="36.09" y="82.5" width="26" height="32" rx="9.01" ry="9.01"/><rect class="cls-1" x="148.09" y="82.5" width="26" height="32" rx="9.01" ry="9.01"/><path class="cls-2" d="M153.27,49.5H50.91c-23.73,0-43.53,18-48.25,42H201.52C196.81,67.51,177,49.5,153.27,49.5Z"/><path class="cls-3" d="M201.52,98.5H2.66a57,57,0,0,0-1.07,11v41.17a6.61,6.61,0,0,0,6.36,6.84H196.23a6.61,6.61,0,0,0,6.36-6.84V109.5A57,57,0,0,0,201.52,98.5Z"/><path class="cls-3" d="M196.23,159.09H7.95A8.21,8.21,0,0,1,0,150.66V109.5a58.82,58.82,0,0,1,1.1-11.3,1.59,1.59,0,0,1,1.56-1.28H201.52a1.59,1.59,0,0,1,1.56,1.28,58.8,58.8,0,0,1,1.1,11.3v41.17A8.21,8.21,0,0,1,196.23,159.09ZM4,100.09a55.64,55.64,0,0,0-.8,9.41v41.17a5,5,0,0,0,4.77,5.25H196.23a5,5,0,0,0,4.77-5.25V109.5a55.58,55.58,0,0,0-.8-9.41Z"/><rect class="cls-4" x="40.09" y="79.5" width="24" height="34" rx="7.96" ry="7.96"/><rect class="cls-4" x="138.09" y="79.5" width="24" height="34" rx="7.96" ry="7.96"/><path class="cls-5" d="M52.09,46c0-24,21.94-43.5,49-43.5s49,19.48,49,43.5"/></g></g></svg>