<svg xmlns="http://www.w3.org/2000/svg" width="207.18" height="155.09" viewBox="0 0 207.18 155.09"><defs><style>.cls-1{fill:none;stroke-width:3.29px;}.cls-1,.cls-2,.cls-3,.cls-4{stroke:#fff;}.cls-1,.cls-3,.cls-4{stroke-linecap:round;stroke-linejoin:round;}.cls-2,.cls-3,.cls-4{fill:#095280;}.cls-2{stroke-miterlimit:10;stroke-width:3px;}.cls-3{stroke-width:3.18px;}.cls-4{stroke-width:2.9px;}</style></defs><title>Asset 2</title><g id="Layer_2" data-name="Layer 2"><g id="Layer_1-2" data-name="Layer 1"><path class="cls-1" d="M37.59,86a9,9,0,0,1,9-9h8a9,9,0,0,1,9,9v14a9,9,0,0,1-9,9h-8a9,9,0,0,1-9-9"/><path class="cls-2" d="M151.59,50a2.5,2.5,0,0,1-2.5-2.5c0-22.61-20.86-41-46.5-41s-46.5,18.39-46.5,41a2.5,2.5,0,0,1-5,0c0-25.36,23.1-46,51.5-46s51.5,20.64,51.5,46A2.5,2.5,0,0,1,151.59,50Z"/><path class="cls-3" d="M154.77,44H52.41C28.68,44,8.87,62,4.16,86H203C198.31,62,178.5,44,154.77,44Z"/><path class="cls-2" d="M204.58,92.69A1.59,1.59,0,0,0,203,91.41H4.16A1.59,1.59,0,0,0,2.6,92.69,58.82,58.82,0,0,0,1.5,104v41.17a8.21,8.21,0,0,0,7.95,8.42H197.73a8.21,8.21,0,0,0,7.95-8.42V104A58.8,58.8,0,0,0,204.58,92.69Z"/><rect class="cls-4" x="56.59" y="74" width="24" height="34" rx="7.96" ry="7.96"/><rect class="cls-4" x="139.59" y="74" width="24" height="34" rx="7.96" ry="7.96"/></g></g></svg>