<svg xmlns="http://www.w3.org/2000/svg" width="207.18" height="155.59" viewBox="0 0 207.18 155.59"><defs><style>.cls-1{fill:#fff;}.cls-2,.cls-3{fill:none;stroke:#fff;}.cls-2{stroke-linecap:round;stroke-linejoin:round;stroke-width:3.18px;}.cls-3{stroke-miterlimit:10;stroke-width:3px;}</style></defs><title>Asset 2</title><g id="Layer_2" data-name="Layer 2"><g id="Layer_1-2" data-name="Layer 1"><path class="cls-1" d="M151.59,48.5a2.5,2.5,0,0,1-2.5-2.5c0-22.61-20.86-41-46.5-41s-46.5,18.39-46.5,41a2.5,2.5,0,0,1-5,0c0-25.36,23.1-46,51.5-46s51.5,20.64,51.5,46A2.5,2.5,0,0,1,151.59,48.5Z"/><path class="cls-2" d="M154.77,48.5H52.41c-23.73,0-43.53,18-48.25,42H203C198.31,66.51,178.5,48.5,154.77,48.5Z"/><path class="cls-3" d="M204.58,93.19A1.59,1.59,0,0,0,203,91.91H4.16A1.59,1.59,0,0,0,2.6,93.19a58.82,58.82,0,0,0-1.1,11.3v41.17a8.21,8.21,0,0,0,7.95,8.42H197.73a8.21,8.21,0,0,0,7.95-8.42V104.5A58.8,58.8,0,0,0,204.58,93.19Z"/><rect class="cls-1" x="42.59" y="74.5" width="24" height="34" rx="7.96" ry="7.96"/><rect class="cls-1" x="139.59" y="74.5" width="24" height="34" rx="7.96" ry="7.96"/></g></g></svg>