<svg xmlns="http://www.w3.org/2000/svg" width="207.83" height="217.71" viewBox="0 0 207.83 217.71"><defs><style>.cls-1,.cls-4{fill:#fff;}.cls-2,.cls-3{fill:none;stroke:#fff;}.cls-2{stroke-linecap:round;stroke-linejoin:round;stroke-width:3.18px;}.cls-3{stroke-miterlimit:10;stroke-width:3.65px;}.cls-4{font-size:148.89px;font-family:Montserrat-Medium, Montserrat;}</style></defs><title>Asset 3</title><g id="Layer_2" data-name="Layer 2"><g id="Layer_1-2" data-name="Layer 1"><path class="cls-1" d="M151.91,48.5a2.5,2.5,0,0,1-2.5-2.5c0-22.61-20.86-41-46.5-41s-46.5,18.39-46.5,41a2.5,2.5,0,0,1-5,0c0-25.36,23.1-46,51.5-46s51.5,20.64,51.5,46A2.5,2.5,0,0,1,151.91,48.5Z"/><path class="cls-2" d="M155.1,48.5H52.73c-23.73,0-43.53,18-48.25,42H203.34C198.63,66.51,178.82,48.5,155.1,48.5Z"/><path class="cls-3" d="M204.9,93.81c-.15-1.1-.8-1.9-1.56-1.9H4.48c-.76,0-1.41.8-1.56,1.9a127.87,127.87,0,0,0-1.1,16.74v61C1.83,178.4,5.39,184,9.78,184H198.05c4.38,0,7.95-5.6,7.95-12.48v-61A127.84,127.84,0,0,0,204.9,93.81Z"/><rect class="cls-1" x="42.91" y="74.5" width="24" height="34" rx="7.96" ry="7.96"/><rect class="cls-1" x="139.91" y="74.5" width="24" height="34" rx="7.96" ry="7.96"/><text class="cls-4" transform="translate(69.01 178.55)">s</text></g></g></svg>