<svg xmlns="http://www.w3.org/2000/svg" width="208.04" height="220.06" viewBox="0 0 208.04 220.06"><defs><style>.cls-1,.cls-4{fill:#fff;}.cls-2,.cls-3{fill:none;stroke:#fff;}.cls-2{stroke-linecap:round;stroke-linejoin:round;stroke-width:3.18px;}.cls-3{stroke-miterlimit:10;stroke-width:3.86px;}.cls-4{font-size:147px;font-family:Montserrat-Regular, Montserrat;}</style></defs><title>Asset 5</title><g id="Layer_2" data-name="Layer 2"><g id="Layer_1-2" data-name="Layer 1"><path class="cls-1" d="M152,48.5a2.5,2.5,0,0,1-2.5-2.5c0-22.61-20.86-41-46.5-41s-46.5,18.39-46.5,41a2.5,2.5,0,0,1-5,0c0-25.36,23.1-46,51.5-46s51.5,20.64,51.5,46A2.5,2.5,0,0,1,152,48.5Z"/><path class="cls-2" d="M155.2,48.5H52.84c-23.73,0-43.53,18-48.25,42H203.45C198.74,66.51,178.93,48.5,155.2,48.5Z"/><path class="cls-3" d="M205,94c-.15-1.24-.8-2.13-1.56-2.13H4.59c-.76,0-1.41.89-1.56,2.13a160,160,0,0,0-1.1,18.74V181c0,7.7,3.57,14,7.95,14H198.16c4.38,0,7.95-6.27,7.95-14V112.78A160,160,0,0,0,205,94Z"/><rect class="cls-1" x="43.02" y="74.5" width="24" height="34" rx="7.96" ry="7.96"/><rect class="cls-1" x="140.02" y="74.5" width="24" height="34" rx="7.96" ry="7.96"/><text class="cls-4" transform="translate(67.12 181.55)">s</text></g></g></svg>