<?xml version="1.0" encoding="utf-8"?>
<!-- Generator: Adobe Illustrator 21.1.0, SVG Export Plug-In . SVG Version: 6.00 Build 0)  -->
<svg version="1.1" id="Layer_1" xmlns="http://www.w3.org/2000/svg" xmlns:xlink="http://www.w3.org/1999/xlink" x="0px" y="0px"
	 viewBox="0 0 16 16" style="enable-background:new 0 0 16 16;" xml:space="preserve">
<style type="text/css">
	.st0{fill:none;stroke:#095280;stroke-width:8.967462e-02;stroke-linecap:round;stroke-linejoin:round;stroke-miterlimit:10;}
	.st1{fill:none;stroke:#095280;stroke-width:7.151517e-02;stroke-linecap:round;stroke-linejoin:round;stroke-miterlimit:10;}
	.st2{fill:none;stroke:#095280;stroke-width:9.550732e-02;stroke-linecap:round;stroke-linejoin:round;stroke-miterlimit:10;}
	.st3{fill:none;stroke:#095280;stroke-width:9.632273e-02;stroke-linecap:round;stroke-linejoin:round;stroke-miterlimit:10;}
</style>
<g>
	<path class="st0" d="M11.3,15H5.7C5.3,15,5,14.7,5,14.3V1.7C5,1.3,5.3,1,5.7,1h5.6C11.7,1,12,1.3,12,1.7v12.5
		C12,14.7,11.7,15,11.3,15z"/>
	<path class="st1" d="M10.9,13H6.1c-0.3,0-0.6-0.3-0.6-0.6V3.1c0-0.3,0.3-0.6,0.6-0.6h4.8c0.3,0,0.6,0.3,0.6,0.6v9.3
		C11.5,12.7,11.2,13,10.9,13z"/>
	<line class="st2" x1="7.2" y1="2" x2="9.7" y2="2"/>
	<circle class="st3" cx="8.3" cy="14.2" r="0.6"/>
</g>
</svg>
